<svg fill="none" height="28" viewBox="0 0 160 28" width="160" xmlns="http://www.w3.org/2000/svg"><g fill="#1A1A1A"><path d="m136.602.0763245h-7.959c-2.309 0-4.371.9734155-6.05 2.2522155-1.699 1.29788-2.94 3.79822-3.169 6.68029-.057.62986 0 1.62237 0 1.62237v1.6414c-.019.0382-.019.0955-.019.1527v6.3559c0 5.0961 4.123 9.2188 9.219 9.2188 2.31 0 4.371-.9735 6.031-2.2523 1.699-1.2978 2.94-3.7982 3.169-6.6802.057-.6108 0-1.5651 0-1.6033v.1336l-.019.0954.019-.229v-1.6606c.019-.0381.019-.0954.019-.1526v-14.4104c.019-.610765-.477-1.1642755-1.241-1.1642755zm-17.197 10.5548755.019-.229zm12.101 1.6414c-.019.0382-.019.0955-.019.1527v6.3559c0 1.5841-1.279 2.8629-2.863 2.8629s-2.863-1.2788-2.863-2.8629v-2.9776c.019-.0381.019-.0954.019-.1526v-6.35587c0-1.58418 1.279-2.86298 2.863-2.86298h2.863z"/><path d="m80.45.0763245c-2.3095 0-4.4281.8588955-6.0504 2.2522155-1.6224-1.39332-3.7219-2.2522155-6.0314-2.2522155-5.0961 0-9.2188 4.1226955-9.2188 9.2188055v17.86507c0 .3244.2863.6107.6108.6107h5.1534c.3244 0 .5916-.2863.5916-.6107v-17.84598c0-1.58418 1.2788-2.86298 2.863-2.86298s2.8439 1.2788 2.8439 2.86298v1.18338-.0954.229 16.548c0 .3245.2863.6108.6108.6108h5.1534c.3244 0 .5916-.2863.5916-.6108v-16.7007-1.16428c0-1.58418 1.2788-2.86298 2.863-2.86298s2.863 1.2788 2.863 2.86298v17.86498c0 .3245.2863.6108.6108.6108h5.1534c.3244 0 .5916-.2863.5916-.6108v-17.86498c.0191-5.09611-4.1036-9.2378955-9.1997-9.2378955z"/><path d="m98.6393.610809h-5.2297c-.3245 0-.6108.286299-.6108.610771v25.95772c0 .3245.2863.6108.6108.6108h5.2297c.3245 0 .6108-.2863.6108-.6108v-25.95772c-.0191-.324472-.2863-.610771-.6108-.610771z"/><path d="m23.7819.591675h-5.2297c-.3245 0-.6108.286298-.6108.610765v25.95776c0 .3244.2863.6107.6108.6107h5.2297c.3245 0 .6108-.2863.6108-.6107v-25.95776c0-.324467-.2863-.610765-.6108-.610765z"/><path d="m37.9822 5.63054v-4.867078c0-.362644-.2099-.7062023-.7253-.763462h-.229c-5.0961 0-9.2188 4.1227-9.2188 9.21881v17.86499c0 .3245.2672.6108.5917.6108h5.1533c.3245 0 .6108-.2863.6108-.6108v-17.86499c0-1.58419 1.2788-2.86299 2.863-2.86299.5917 0 .9543-.38173.9543-.72528z"/><path d="m47.3729 0-.3054.0190866h-5.6114c-.3245 0-.6108.2862984-.6108.5916834v5.13428c0 .32448.2863.59169.6108.59169h5.6496c.0764.01908.1718.03817.2672.03817 1.5842 0 2.863 1.2788 2.863 2.93933h-3.8555c-5.0961 0-9.2188 4.12266-9.2188 9.21876 0 2.3095.9734 4.3709 2.2522 6.0505 1.2979 1.6987 3.7983 2.9393 6.6803 3.1684.6299.0572 1.6224 0 1.6224 0h-.1336-.0955.2291 5.0388c.0764 0 .1718-.0191.2291-.0573h3.0157c.3244 0 .5916-.2863.5916-.6108v-17.86499c0-5.09611-4.1227-9.21881-9.2188-9.21881zm2.863 21.396h-3.8555c-1.5842 0-2.863-1.2788-2.863-2.863 0-1.5841 1.2788-2.8629 2.863-2.8629h3.8555z"/><path d="m13.8378.534332h-13.22703c-.324472 0-.61077.286299-.61077.610768v5.22972c0 .30538.286298.59168.61077.59168h3.43558v11.4519c0 6.0696 3.93183 9.3525 8.58895 9.3525.1145 0 .5726-.0382.5726-.6681 0-1.1452.0191-3.8745.0191-5.1915 0-.5726-.4772-.7253-.6299-.7253-1.1643 0-2.4431-.4772-2.4431-3.3211v-10.87931h3.7028c.3245 0 .6108-.2863.6108-.61077v-5.22972c-.0191-.324469-.3054-.610768-.6298-.610768z"/><path d="m117.974.610809h-14.83c-.325 0-.611.286299-.611.610771v4.59986c0 .32447.286.61077.611.61077h6.279l-8.073 20.40349c-.325.4963-.096.9353.496.9353h15.078c.325 0 .611-.2863.611-.6108v-4.9243c0-.3245-.286-.6108-.611-.6108h-6.642l8.188-20.11722c.325-.45808.077-.897071-.496-.897071z"/><path d="m159.048 15.67v-14.4294c0-.610765-.496-1.1642755-1.259-1.1642755h-7.959c-2.31 0-4.371.9734155-6.051 2.2522155-1.698 1.29788-2.939 3.79822-3.168 6.68029-.038.62986 0 1.62237 0 1.62237v1.6414c-.019.0382-.019.0955-.019.1527v6.3559c0 5.0961 4.122 9.2188 9.219 9.2188 2.309 0 4.37-.9735 6.05-2.2523 1.699-1.2978 2.939-3.7982 3.168-6.6802.058-.6299 0-1.6224 0-1.6224v-1.6415c.019-.0381.019-.0954.019-.1336zm-6.355-3.3974c-.019.0382-.019.0955-.019.1527v6.3559c0 1.5841-1.279 2.8629-2.863 2.8629-1.585 0-2.863-1.2788-2.863-2.8629v-2.9776c.019-.0381.019-.0954.019-.1336v-6.37487c0-1.58418 1.279-2.86298 2.863-2.86298h2.863z"/></g></svg>